<svg xmlns="http://www.w3.org/2000/svg" width="700" height="700" viewBox="0 0 700 700">
  <!-- Waypoint: subtle topographic contour texture for dark blocks (hero, tiles).
       White strokes at very low opacity; tiles/hero set the base color. -->
  <g fill="none" stroke="#ffffff" stroke-opacity="0.055" stroke-width="1.3">
    <path d="M120 180 C 90 120, 180 70, 250 95 C 320 120, 340 190, 300 245 C 260 300, 150 300, 120 250 C 100 218, 110 200, 120 180 Z"/>
    <path d="M105 185 C 68 112, 175 45, 262 76 C 348 107, 372 196, 322 262 C 272 328, 135 325, 100 262 C 78 222, 92 202, 105 185 Z"/>
    <path d="M88 190 C 44 102, 170 18, 276 56 C 378 92, 406 204, 346 280 C 286 356, 118 352, 78 276 C 55 230, 72 208, 88 190 Z"/>
    <path d="M70 196 C 20 92, 165 -10, 290 36 C 410 78, 442 212, 370 300 C 298 388, 100 380, 55 290 C 30 238, 50 214, 70 196 Z"/>
    <path d="M520 520 C 490 470, 560 430, 615 450 C 668 470, 680 525, 645 565 C 610 605, 530 600, 512 560 C 500 535, 508 528, 520 520 Z"/>
    <path d="M505 525 C 468 462, 558 408, 628 434 C 696 460, 712 530, 668 582 C 624 634, 518 626, 494 572 C 480 540, 492 532, 505 525 Z"/>
    <path d="M488 530 C 444 452, 556 384, 642 418 C 726 450, 746 536, 692 600 C 638 664, 504 654, 474 586 C 458 546, 474 538, 488 530 Z"/>
    <path d="M470 536 C 418 442, 552 360, 658 400 C 758 438, 782 542, 718 618 C 654 694, 488 684, 452 602 C 434 554, 456 544, 470 536 Z"/>
    <path d="M560 130 C 545 100, 585 80, 618 92 C 650 104, 656 138, 634 160 C 612 182, 566 178, 556 152 C 550 140, 554 136, 560 130 Z"/>
    <path d="M548 134 C 528 92, 582 64, 626 80 C 668 96, 676 142, 646 172 C 616 202, 554 196, 540 160 C 532 144, 540 140, 548 134 Z"/>
    <path d="M534 138 C 508 84, 578 46, 636 68 C 692 88, 702 148, 662 186 C 622 224, 540 216, 522 168 C 512 148, 524 144, 534 138 Z"/>
    <path d="M150 560 C 140 535, 170 520, 196 528 C 222 536, 226 562, 208 578 C 190 594, 156 590, 148 572 C 144 564, 146 564, 150 560 Z"/>
    <path d="M138 564 C 124 530, 166 508, 202 520 C 238 532, 244 568, 220 590 C 196 612, 148 606, 136 580 C 130 570, 133 568, 138 564 Z"/>
    <path d="M124 568 C 106 524, 162 494, 210 510 C 256 526, 264 574, 232 602 C 200 630, 136 622, 122 588 C 114 574, 118 572, 124 568 Z"/>
    <path d="M-20 420 C 60 380, 180 400, 240 460 C 300 520, 280 620, 200 660 C 150 685, 60 680, 10 640"/>
    <path d="M-20 452 C 50 416, 160 432, 214 486 C 268 540, 250 626, 180 662 C 136 684, 56 680, 12 646"/>
    <path d="M700 260 C 640 280, 560 260, 520 210 C 480 160, 500 80, 560 50 C 610 26, 670 40, 700 70"/>
    <path d="M700 292 C 648 308, 578 290, 542 246 C 506 202, 522 132, 574 106 C 618 84, 672 96, 700 122"/>
    <path d="M330 640 C 380 600, 460 610, 500 660 C 520 685, 520 700, 515 700"/>
    <path d="M310 660 C 366 616, 458 628, 502 684 C 508 692, 512 700, 510 700"/>
  </g>
</svg>
